# Blender v2.79 (sub 6) OBJ File: 'boeing.blend'
# www.blender.org
mtllib boeing.mtl
o Cube
v 0.940869 2.000000 13.971340
v 0.940869 -0.084194 13.971340
v 0.824098 0.077910 -16.601278
v 0.824098 -1.073877 -16.601278
v 17.072416 0.816167 3.372610
v 17.120466 0.351572 3.372610
v 17.137758 0.822924 1.994545
v 17.185808 0.358330 1.994545
v 1.332149 -0.543856 -5.684981
v 1.435022 -1.538550 -5.684981
v 1.332149 -0.543856 -0.648984
v 1.435022 -1.538550 -0.648984
v 0.500000 1.225816 10.893257
v 0.500000 7.225816 15.107246
v 0.500000 1.225816 13.893257
v 0.500000 7.225816 16.335033
v 6.135792 0.917948 14.747385
v 6.069527 1.595315 14.747385
v 6.135792 0.917948 16.451277
v 6.069527 1.595315 16.451277
v 0.164298 0.333771 13.837351
v 0.098033 1.011138 13.837351
v 0.164298 0.333771 9.837351
v 0.098033 1.011138 9.837351
v 1.850000 2.000000 -12.669353
v 1.850000 -2.000000 -12.669353
v 1.850000 -2.000000 5.546994
v 1.850000 2.000000 5.546993
v 16.703375 0.296221 1.110880
v 16.685596 0.788375 2.655735
v 16.708418 0.790735 1.110880
v 16.680553 0.293860 2.655735
v 17.534702 2.242501 3.372610
v 17.600044 2.249259 1.994545
v 17.147882 2.214710 2.655735
v 17.170704 2.119796 1.854079
v -0.940869 2.000000 13.971340
v -0.940869 -0.084194 13.971340
v -0.824098 0.077910 -16.601278
v -0.824098 -1.073877 -16.601278
v -17.072416 0.816167 3.372610
v -17.120466 0.351572 3.372610
v -17.137758 0.822924 1.994545
v -17.185808 0.358330 1.994545
v 0.000000 -0.084194 13.971340
v 0.000000 2.000000 13.971340
v 0.000000 -1.073877 -16.601278
v 0.000000 0.077910 -16.601278
v -1.332149 -0.543856 -5.684981
v -1.435022 -1.538550 -5.684981
v -1.332149 -0.543856 -0.648984
v -1.435022 -1.538550 -0.648984
v -0.500000 1.225816 10.893257
v -0.500000 7.225816 15.107246
v -0.500000 1.225816 13.893257
v -0.500000 7.225816 16.335033
v 0.000000 1.225816 13.893257
v 0.000000 7.225816 16.335033
v 0.000000 1.225816 10.893257
v 0.000000 7.225816 15.107246
v -6.135792 0.917948 14.747385
v -6.069527 1.595315 14.747385
v -6.135792 0.917948 16.451277
v -6.069527 1.595315 16.451277
v -0.164298 0.333771 13.837351
v -0.098033 1.011138 13.837351
v -0.164298 0.333771 9.837351
v -0.098033 1.011138 9.837351
v -1.850000 2.000000 -12.669353
v -1.850000 -2.000000 -12.669353
v 0.000000 -2.000000 -12.669353
v 0.000000 2.000000 -12.669353
v -1.850000 -2.000000 5.546994
v -1.850000 2.000000 5.546993
v 0.000000 -2.000000 5.546993
v 0.000000 2.000000 5.546993
v -16.703375 0.296221 1.110880
v -16.685596 0.788375 2.655735
v -16.708418 0.790735 1.110880
v -16.680553 0.293860 2.655735
v -17.534702 2.242501 3.372610
v -17.600044 2.249259 1.994545
v -17.147882 2.214710 2.655735
v -17.170704 2.119796 1.854079
vn 0.0000 0.9734 0.2293
vn -0.9676 0.0000 0.2525
vn 0.0000 0.0000 -1.0000
vn -0.1275 0.9918 -0.0008
vn -0.9936 -0.1028 -0.0476
vn 0.8646 0.0388 -0.5009
vn 0.0000 -0.8984 0.4392
vn -0.4030 -0.0265 0.9148
vn 0.0865 -0.9963 -0.0001
vn 0.0000 0.0000 1.0000
vn 0.0000 0.3769 -0.9262
vn -1.0000 0.0000 0.0000
vn -0.9952 -0.0974 0.0000
vn 0.0000 1.0000 0.0000
vn 0.3975 0.0389 -0.9168
vn 0.0000 -1.0000 0.0000
vn -0.0974 0.9952 0.0000
vn 0.0000 -0.5747 0.8183
vn 0.0974 -0.9952 0.0000
vn -0.6303 -0.0617 0.7739
vn 0.9947 0.1029 0.0000
vn 0.0000 0.9751 -0.2218
vn -0.9942 -0.0000 -0.1073
vn 0.8504 -0.2756 -0.4482
vn -0.8871 -0.0398 0.4598
vn 0.2098 0.0138 -0.9777
vn -0.1193 0.9929 -0.0001
vn 0.1424 -0.9887 0.0458
vn 0.9450 -0.3255 0.0312
vn -0.9504 0.3080 -0.0436
vn -0.7701 0.0880 0.6318
vn 0.9676 0.0000 0.2525
vn 0.1275 0.9918 -0.0008
vn 0.9936 -0.1028 -0.0476
vn -0.8646 0.0388 -0.5009
vn 0.4030 -0.0265 0.9148
vn -0.0865 -0.9963 -0.0001
vn 1.0000 -0.0000 0.0000
vn 0.9952 -0.0974 0.0000
vn -0.3975 0.0389 -0.9168
vn 0.0974 0.9952 0.0000
vn -0.0974 -0.9952 0.0000
vn 0.6303 -0.0617 0.7739
vn -0.9947 0.1029 0.0000
vn 0.9942 -0.0000 -0.1073
vn -0.8504 -0.2756 -0.4482
vn 0.8871 -0.0398 0.4598
vn -0.2098 0.0138 -0.9777
vn 0.1193 0.9929 -0.0001
vn -0.1424 -0.9887 0.0458
vn -0.9450 -0.3255 0.0312
vn 0.9504 0.3080 -0.0436
vn 0.7701 0.0880 0.6318
usemtl Material
s off
f 71//1 26//1 4//1 47//1
f 26//2 25//2 3//2 4//2
f 45//3 46//3 1//3 2//3
f 32//4 6//4 8//4 29//4
f 6//5 5//5 7//5 8//5
f 32//6 30//6 5//6 6//6
f 25//7 72//7 48//7 3//7
f 29//8 31//8 9//8 10//8
f 30//9 11//9 9//9 31//9
f 4//10 3//10 48//10 47//10
f 57//11 58//11 16//11 15//11
f 15//12 16//12 14//12 13//12
f 19//13 20//13 18//13 17//13
f 57//14 15//14 13//14 59//14
f 21//15 22//15 20//15 19//15
f 16//16 58//16 60//16 14//16
f 21//17 19//17 17//17 23//17
f 13//18 14//18 60//18 59//18
f 20//19 22//19 24//19 18//19
f 17//20 18//20 24//20 23//20
f 10//21 9//21 11//21 12//21
f 28//16 76//16 72//16 25//16
f 27//12 28//12 25//12 26//12
f 75//14 27//14 26//14 71//14
f 45//22 2//22 27//22 75//22
f 2//23 1//23 28//23 27//23
f 1//16 46//16 76//16 28//16
f 5//24 30//24 35//24 33//24
f 8//25 7//25 31//25 29//25
f 12//26 11//26 30//26 32//26
f 12//27 32//27 29//27 10//27
f 33//28 35//28 36//28 34//28
f 30//29 31//29 36//29 35//29
f 7//30 5//30 33//30 34//30
f 31//31 7//31 34//31 36//31
f 71//1 47//1 40//1 70//1
f 70//32 40//32 39//32 69//32
f 45//3 38//3 37//3 46//3
f 80//33 77//33 44//33 42//33
f 42//34 44//34 43//34 41//34
f 80//35 42//35 41//35 78//35
f 69//7 39//7 48//7 72//7
f 77//36 50//36 49//36 79//36
f 78//37 79//37 49//37 51//37
f 40//10 47//10 48//10 39//10
f 57//11 55//11 56//11 58//11
f 55//38 53//38 54//38 56//38
f 63//39 61//39 62//39 64//39
f 57//14 59//14 53//14 55//14
f 65//40 63//40 64//40 66//40
f 56//16 54//16 60//16 58//16
f 65//41 67//41 61//41 63//41
f 53//18 59//18 60//18 54//18
f 64//42 62//42 68//42 66//42
f 61//43 67//43 68//43 62//43
f 50//44 52//44 51//44 49//44
f 74//16 69//16 72//16 76//16
f 73//38 70//38 69//38 74//38
f 75//14 71//14 70//14 73//14
f 45//22 75//22 73//22 38//22
f 38//45 73//45 74//45 37//45
f 37//16 74//16 76//16 46//16
f 41//46 81//46 83//46 78//46
f 44//47 77//47 79//47 43//47
f 52//48 80//48 78//48 51//48
f 52//49 50//49 77//49 80//49
f 81//50 82//50 84//50 83//50
f 78//51 83//51 84//51 79//51
f 43//52 82//52 81//52 41//52
f 79//53 84//53 82//53 43//53
